<svg id="Layer_1" data-name="Layer 1" xmlns="http://www.w3.org/2000/svg" viewBox="0 0 458.63 134.29"><defs><style>.cls-1{fill:#3b792a;}</style></defs><path class="cls-1" d="M206.56,429.16a4.61,4.61,0,0,1,4.13-2.69,4.49,4.49,0,0,1,4.38,4.21,5.5,5.5,0,0,1-.51,2.27,20.55,20.55,0,0,1-8.5,10,24.6,24.6,0,0,1-13.14,3.71,23.51,23.51,0,0,1-17.09-6.74,26,26,0,0,1-7.49-17,70.49,70.49,0,0,1,0-13.47,25.79,25.79,0,0,1,7.49-16.92,23,23,0,0,1,17-6.82,24.87,24.87,0,0,1,13.22,3.7,20.55,20.55,0,0,1,8.5,10,5,5,0,0,1,.51,2.27,4.49,4.49,0,0,1-4.38,4.21,4.61,4.61,0,0,1-4.13-2.69,14.84,14.84,0,0,0-13.72-8.92,14,14,0,0,0-10.78,4.54,18.68,18.68,0,0,0-4.72,11.45,95.45,95.45,0,0,0,0,12c.76,9.43,6.66,15.74,15.5,15.74A14.9,14.9,0,0,0,206.56,429.16Z" transform="translate(-168.02 -355.15)"/><path class="cls-1" d="M269.21,445.92A4.17,4.17,0,0,1,265,443l-5.56-15.74H234.18l-5.55,15.83a4.12,4.12,0,0,1-4.21,2.86,4.34,4.34,0,0,1-4.38-4.55,5.33,5.33,0,0,1,.25-1.68l16.84-46.82c1.68-4.8,5-7.24,9.77-7.24s8,2.44,9.76,7.24l16.76,46.82a4.69,4.69,0,0,1,.25,1.51A4.55,4.55,0,0,1,269.21,445.92ZM237.05,419h19.53l-8-22.82a1.63,1.63,0,0,0-1.68-1.27,1.67,1.67,0,0,0-1.77,1.27Z" transform="translate(-168.02 -355.15)"/><path class="cls-1" d="M292.28,423.77v17.69a4.67,4.67,0,0,1-4.54,4.71,4.6,4.6,0,0,1-4.46-4.71V393.13a6.18,6.18,0,0,1,6.56-6.57H307a20.27,20.27,0,0,1,14,5c3.78,3.28,5.64,7.83,5.64,13.64,0,9.51-5.05,15-13.05,16.67l13.64,16.67a4.77,4.77,0,0,1-.26,6.4,4.47,4.47,0,0,1-6.48-.25l-14.73-18.19c-1.6-1.94-2.61-2.7-4.72-2.7Zm0-8.58H306c7.66,0,11.53-3.29,11.53-9.94s-3.7-9.93-11.11-9.93H292.28Z" transform="translate(-168.02 -355.15)"/><path class="cls-1" d="M340.28,390.94a4.72,4.72,0,0,1,4.55-4.63,4.49,4.49,0,0,1,4.54,4.63v50.52a4.49,4.49,0,0,1-4.54,4.63,4.72,4.72,0,0,1-4.55-4.63Z" transform="translate(-168.02 -355.15)"/><path class="cls-1" d="M391,445.75H371.6a6.56,6.56,0,0,1-7-6.9V393.46a6.56,6.56,0,0,1,7-6.9h18.78c5.3,0,9.51,1.51,12.46,4.46a14.63,14.63,0,0,1,4.55,11c0,6.48-2.53,10.86-7.66,13V415c5.81,1.68,9.34,6.73,9.34,13.72C409.07,440.11,401.75,445.75,391,445.75Zm-17.34-34.44h15.66c6.06,0,9.09-2.69,9.09-8.16s-3-8.09-9.09-8.09H373.63Zm0,8v17.85h16.25c6.65,0,10-3,10-9,0-5.47-3.7-8.84-9.43-8.84Z" transform="translate(-168.02 -355.15)"/><path class="cls-1" d="M419.26,409.46a25,25,0,0,1,7.92-16.92,25.68,25.68,0,0,1,34.94.08A24.68,24.68,0,0,1,470,409.46a72.16,72.16,0,0,1,0,13.47,25.61,25.61,0,0,1-42.86,17,25.12,25.12,0,0,1-7.92-17A72.16,72.16,0,0,1,419.26,409.46Zm41.77.67a17.12,17.12,0,0,0-5.22-11.36,16.29,16.29,0,0,0-22.4,0,17.47,17.47,0,0,0-5.14,11.36,73.33,73.33,0,0,0,0,12,17.81,17.81,0,0,0,5.06,11.37,16.49,16.49,0,0,0,22.56,0A17.44,17.44,0,0,0,461,422.17,73.33,73.33,0,0,0,461,410.13Z" transform="translate(-168.02 -355.15)"/><path class="cls-1" d="M530.75,421.16c0,7.5-2.36,13.64-7,18.44a25.3,25.3,0,0,1-35.11,0c-4.63-4.8-7-10.94-7-18.44V390.94a4.79,4.79,0,0,1,4.63-4.63,4.53,4.53,0,0,1,4.46,4.63v30.48q0,7.57,4.3,12.12a15.14,15.14,0,0,0,11.2,4.46c9.09,0,15.4-6.48,15.4-16.58V390.94a4.6,4.6,0,0,1,4.55-4.63,4.5,4.5,0,0,1,4.55,4.63Z" transform="translate(-168.02 -355.15)"/><path class="cls-1" d="M182.86,483.6a1.21,1.21,0,0,1-.93-.43l-5.77-7.12a2,2,0,0,0-1.72-1h-3.72v7.24a1.26,1.26,0,1,1-2.52,0V464a1.94,1.94,0,0,1,2.09-2.06h6.27a7.18,7.18,0,0,1,4.94,1.75,6.15,6.15,0,0,1,2,4.85c0,3.54-2,5.53-5.22,6.05l5.59,6.92a1.13,1.13,0,0,1,.28.76A1.33,1.33,0,0,1,182.86,483.6Zm-12.14-10.93h5.53c3.14,0,4.7-1.38,4.7-4.12s-1.5-4.17-4.54-4.17h-5.69Z" transform="translate(-168.02 -355.15)"/><path class="cls-1" d="M201.75,474.7a1.6,1.6,0,0,1-1.82,1.78h-9.18V477a4.24,4.24,0,0,0,4.58,4.51,11.87,11.87,0,0,0,3.74-.79,1.19,1.19,0,0,1,1.79,1,1.22,1.22,0,0,1-.68,1.1,11.14,11.14,0,0,1-4.88,1c-4.18,0-6.76-2.58-7-6.61a23.05,23.05,0,0,1,0-3.68,6.49,6.49,0,0,1,6.78-6.36,6.27,6.27,0,0,1,4.79,1.87,6.6,6.6,0,0,1,1.82,4.8Zm-2.83-.31a.36.36,0,0,0,.4-.37c.15-2.79-1.47-4.67-4.15-4.67-2.94,0-4.51,1.94-4.42,5Z" transform="translate(-168.02 -355.15)"/><path class="cls-1" d="M212.9,474.51c2.73.71,4.08,2.15,4.08,4.33,0,3-2.36,4.92-6,4.92a8.4,8.4,0,0,1-5.46-1.72,1.28,1.28,0,0,1-.25-1.66,1.12,1.12,0,0,1,1.72-.25,6,6,0,0,0,4.21,1.39c2.06,0,3.29-1.08,3.29-2.55,0-1.08-.83-1.82-2.46-2.22-1.44-.33-2.18-.49-2.21-.52q-4.34-1.1-4.33-4.36c0-2.92,2.33-4.76,5.74-4.76a6.91,6.91,0,0,1,4.39,1.32,1.2,1.2,0,1,1-1.5,1.87,5.94,5.94,0,0,0-3-.92c-2.15,0-3.23.8-3.23,2.4,0,1,.65,1.63,2.4,2.12l1.57.37Z" transform="translate(-168.02 -355.15)"/><path class="cls-1" d="M234.12,474.7a1.59,1.59,0,0,1-1.81,1.78h-9.18V477a4.24,4.24,0,0,0,4.57,4.51,11.87,11.87,0,0,0,3.75-.79,1.19,1.19,0,0,1,1.78,1,1.21,1.21,0,0,1-.67,1.1,11.19,11.19,0,0,1-4.89,1c-4.17,0-6.75-2.58-7-6.61a24.45,24.45,0,0,1,0-3.68,6.51,6.51,0,0,1,6.79-6.36,6.28,6.28,0,0,1,4.79,1.87,6.59,6.59,0,0,1,1.81,4.8Zm-2.82-.31a.36.36,0,0,0,.4-.37c.15-2.79-1.48-4.67-4.15-4.67-3,0-4.51,1.94-4.42,5Z" transform="translate(-168.02 -355.15)"/><path class="cls-1" d="M250.68,481a1.14,1.14,0,0,1-.52,1,9.22,9.22,0,0,1-2.55,1.16,12.08,12.08,0,0,1-3.72.56c-3.93,0-6.14-2.06-6.14-5.22,0-2.86,2.21-5,6.17-5a17.17,17.17,0,0,1,4.3.64V473c0-2.46-1.23-3.54-3.84-3.54a11,11,0,0,0-3.65.8c-1,.37-1.78-.12-1.78-.95a1.25,1.25,0,0,1,.79-1.17,11.37,11.37,0,0,1,4.89-1c3.81,0,6.05,1.84,6.05,5.74Zm-2.46-.64v-4a17.16,17.16,0,0,0-4.27-.68c-2.18,0-3.71,1.07-3.71,2.79,0,2,1.32,3,3.93,3A6.1,6.1,0,0,0,248.22,480.38Z" transform="translate(-168.02 -355.15)"/><path class="cls-1" d="M264.44,468.61a1.16,1.16,0,0,1-1.23,1.14,7.21,7.21,0,0,1-1-.12,8,8,0,0,0-1.38-.12q-2.49,0-2.49,2.76v10.07a1.26,1.26,0,0,1-2.52,0V472c0-3,1.81-4.88,5-4.88a9.13,9.13,0,0,1,2.67.34A1.12,1.12,0,0,1,264.44,468.61Z" transform="translate(-168.02 -355.15)"/><path class="cls-1" d="M277.8,478.81A1.25,1.25,0,0,1,279,478a1.19,1.19,0,0,1,1.17,1.26,4.27,4.27,0,0,1-1.75,2.95,6.5,6.5,0,0,1-4.58,1.57A6.89,6.89,0,0,1,269,482a6.41,6.41,0,0,1-2.06-4.46,35.24,35.24,0,0,1,0-4.36A6.08,6.08,0,0,1,269,468.8a7,7,0,0,1,4.82-1.69,6.31,6.31,0,0,1,4.55,1.6,4.32,4.32,0,0,1,1.72,2.91,1.19,1.19,0,0,1-1.17,1.26,1.24,1.24,0,0,1-1.2-.83,4,4,0,0,0-3.87-2.61,4.09,4.09,0,0,0-4.42,3.9,30.42,30.42,0,0,0,0,4.06,4.17,4.17,0,0,0,4.42,4A4.12,4.12,0,0,0,277.8,478.81Z" transform="translate(-168.02 -355.15)"/><path class="cls-1" d="M287,469.14a7.06,7.06,0,0,1,4.82-2c3.66,0,6,2.24,6,6.27v8.93a1.25,1.25,0,0,1-1.26,1.29,1.23,1.23,0,0,1-1.23-1.29v-8.72c0-2.58-1.38-4.12-3.81-4.12a5.92,5.92,0,0,0-4.54,2.37v10.47a1.25,1.25,0,1,1-2.49,0V462.93a1.25,1.25,0,0,1,1.23-1.29,1.27,1.27,0,0,1,1.26,1.29Z" transform="translate(-168.02 -355.15)"/><path class="cls-1" d="M328,474.24v.27a9,9,0,0,1-1.69,5.22l2.05,1.82a1.17,1.17,0,0,1,.13,1.69,1.23,1.23,0,0,1-1.78.06l-2-1.78a8.84,8.84,0,0,1-6.21,2.24,9.07,9.07,0,0,1-5.77-1.66,5.34,5.34,0,0,1-2.09-4.3c0-2.46,1.32-4.24,3.93-5.35-1.87-1.56-2.79-3.19-2.79-4.94,0-3.35,2.49-5.56,6.57-5.56S325,464,325,467.23c0,2.86-1.72,4.7-6,6l5.56,4.89a6.45,6.45,0,0,0,1.05-3.72c0-.89.49-1.47,1.2-1.47A1.19,1.19,0,0,1,328,474.24Zm-5,5.65-6.42-5.81c-2.55,1-3.35,2-3.35,3.66,0,2.21,1.94,3.65,5.22,3.65A6.78,6.78,0,0,0,323,479.89Zm-6-8.42a12.37,12.37,0,0,0,4.18-1.63,3,3,0,0,0,1.23-2.61c0-1.69-1.33-3-4.06-3s-4.05,1.29-4.05,3.17C314.36,469,315.31,470.15,317.06,471.47Z" transform="translate(-168.02 -355.15)"/><path class="cls-1" d="M343.72,483.48a2,2,0,0,1-2.12-2.09V464a2,2,0,0,1,2.12-2.09h5.13q4.51,0,6.94,2.49a9.92,9.92,0,0,1,2.71,6.6,31.18,31.18,0,0,1,0,3.35,9.92,9.92,0,0,1-2.71,6.6q-2.43,2.49-6.94,2.49ZM356,471.13c-.22-4.2-2.55-6.75-7.13-6.75h-4.73v16.67h4.73c4.55,0,6.88-2.51,7.13-6.72A28.44,28.44,0,0,0,356,471.13Z" transform="translate(-168.02 -355.15)"/><path class="cls-1" d="M376.4,474.7a1.59,1.59,0,0,1-1.81,1.78h-9.18V477a4.24,4.24,0,0,0,4.58,4.51,11.87,11.87,0,0,0,3.74-.79,1.18,1.18,0,0,1,1.78,1,1.21,1.21,0,0,1-.67,1.1,11.16,11.16,0,0,1-4.89,1c-4.17,0-6.75-2.58-7-6.61a24.45,24.45,0,0,1,0-3.68,6.51,6.51,0,0,1,6.79-6.36,6.28,6.28,0,0,1,4.79,1.87,6.59,6.59,0,0,1,1.81,4.8Zm-2.82-.31a.36.36,0,0,0,.4-.37c.15-2.79-1.48-4.67-4.15-4.67-2.95,0-4.51,1.94-4.42,5Z" transform="translate(-168.02 -355.15)"/><path class="cls-1" d="M393.42,469.11l-4.7,12.62a2.52,2.52,0,0,1-2.39,1.93,2.43,2.43,0,0,1-2.31-1.9l-4.76-12.68a1.27,1.27,0,0,1,1.2-1.79,1.2,1.2,0,0,1,1.14.89l4.6,12.75c.1.15.22.15.31,0L391,468.31a1.27,1.27,0,1,1,2.39.8Z" transform="translate(-168.02 -355.15)"/><path class="cls-1" d="M409.27,474.7a1.59,1.59,0,0,1-1.81,1.78h-9.18V477a4.24,4.24,0,0,0,4.57,4.51,11.92,11.92,0,0,0,3.75-.79,1.19,1.19,0,0,1,1.78,1,1.21,1.21,0,0,1-.67,1.1,11.22,11.22,0,0,1-4.89,1c-4.18,0-6.76-2.58-7-6.61a24.45,24.45,0,0,1,0-3.68,6.51,6.51,0,0,1,6.79-6.36,6.3,6.3,0,0,1,4.79,1.87,6.59,6.59,0,0,1,1.81,4.8Zm-2.82-.31c.24,0,.36-.12.39-.37.16-2.79-1.47-4.67-4.14-4.67-2.95,0-4.52,1.94-4.42,5Z" transform="translate(-168.02 -355.15)"/><path class="cls-1" d="M416.37,482.31a1.25,1.25,0,1,1-2.49,0V462.93a1.22,1.22,0,0,1,1.23-1.26,1.25,1.25,0,0,1,1.26,1.26Z" transform="translate(-168.02 -355.15)"/><path class="cls-1" d="M435.26,477.55a6.19,6.19,0,0,1-2.09,4.46,6.79,6.79,0,0,1-4.76,1.75,6.89,6.89,0,0,1-4.76-1.75,6.19,6.19,0,0,1-2.09-4.46,35.24,35.24,0,0,1,0-4.36,6.07,6.07,0,0,1,2.06-4.36,7,7,0,0,1,4.79-1.72,6.84,6.84,0,0,1,4.76,1.69,6,6,0,0,1,2.09,4.39A35.24,35.24,0,0,1,435.26,477.55Zm-11.21-.15a4.37,4.37,0,0,0,8.72,0,30,30,0,0,0,0-4,4.38,4.38,0,0,0-8.72,0A27,27,0,0,0,424.05,477.4Z" transform="translate(-168.02 -355.15)"/><path class="cls-1" d="M446.81,483.76a9.71,9.71,0,0,1-4.15-1v5.38a1.25,1.25,0,1,1-2.49,0V469.94a1.09,1.09,0,0,1,.5-1,11.15,11.15,0,0,1,2.58-1.23,10.47,10.47,0,0,1,3.65-.64c3.93,0,6.33,2.36,6.67,6.2a26.21,26.21,0,0,1,0,4.34C453.23,481.55,450.83,483.76,446.81,483.76Zm.06-14.32a7.78,7.78,0,0,0-2.37.43,8.16,8.16,0,0,0-1.84.83v9.59a7.44,7.44,0,0,0,4.09,1.13c2.67,0,4.11-1.29,4.3-3.9a29.79,29.79,0,0,0,0-4C450.8,470.8,449.42,469.44,446.87,469.44Z" transform="translate(-168.02 -355.15)"/><path class="cls-1" d="M480.07,482.31a1.22,1.22,0,0,1-1.22,1.29,1.25,1.25,0,0,1-1.26-1.29v-8.78c0-2.7-1.17-4.06-3.51-4.06a4,4,0,0,0-3.5,1.63v11.21a1.23,1.23,0,0,1-1.23,1.29,1.25,1.25,0,0,1-1.25-1.29v-9.06q0-3.78-3.51-3.78a6.15,6.15,0,0,0-3.5,1v11.82a1.23,1.23,0,0,1-1.23,1.29,1.26,1.26,0,0,1-1.26-1.29V469.9a1.47,1.47,0,0,1,.65-1.19,8.37,8.37,0,0,1,5.31-1.6c2.18,0,3.78.61,4.73,1.87a7.39,7.39,0,0,1,4.86-1.87c4.08,0,5.92,2.12,5.92,6.27Z" transform="translate(-168.02 -355.15)"/><path class="cls-1" d="M498.44,474.7a1.59,1.59,0,0,1-1.81,1.78h-9.18V477a4.24,4.24,0,0,0,4.57,4.51,11.87,11.87,0,0,0,3.75-.79,1.19,1.19,0,0,1,1.78,1,1.21,1.21,0,0,1-.67,1.1,11.19,11.19,0,0,1-4.89,1c-4.17,0-6.75-2.58-7-6.61a24.45,24.45,0,0,1,0-3.68,6.51,6.51,0,0,1,6.79-6.36,6.28,6.28,0,0,1,4.79,1.87,6.59,6.59,0,0,1,1.81,4.8Zm-2.82-.31a.36.36,0,0,0,.4-.37c.15-2.79-1.48-4.67-4.15-4.67-2.95,0-4.51,1.94-4.42,5Z" transform="translate(-168.02 -355.15)"/><path class="cls-1" d="M516.35,482.31a1.21,1.21,0,0,1-1.23,1.29,1.26,1.26,0,0,1-1.26-1.29V473.5a3.77,3.77,0,0,0-4.11-4,8.14,8.14,0,0,0-4.24,1v11.82a1.23,1.23,0,0,1-1.23,1.29,1.25,1.25,0,0,1-1.26-1.29V469.87a1.32,1.32,0,0,1,.55-1.1,11.1,11.1,0,0,1,6.24-1.66c4.27,0,6.54,2.21,6.54,6.27Z" transform="translate(-168.02 -355.15)"/><path class="cls-1" d="M526.3,483.76c-3.16,0-4.73-2-4.73-5.07V465.33a1.22,1.22,0,0,1,1.23-1.26,1.24,1.24,0,0,1,1.26,1.26v2.52h4.64a1.14,1.14,0,1,1,0,2.27h-4.64v8.66c0,1.63.77,2.67,2.37,2.67a11.67,11.67,0,0,0,2.45-.55,1.16,1.16,0,0,1,1.6,1.14,1.24,1.24,0,0,1-1,1.2A9.19,9.19,0,0,1,526.3,483.76Z" transform="translate(-168.02 -355.15)"/><polygon class="cls-1" points="404.3 97.1 404.13 97.09 404.14 96.97 404.3 97.1"/><path class="cls-1" d="M626.65,456.43l-5.89,27.4-3.79-.08,2.62-19-10-10-21.85-1L585.39,456l-1.16,27.83h-3.47l-3.26-27.32-5.18-4.26-.16-.14v.13l-3.57,31.66-3.48-.07s-1.16-30.77-1.16-31.89l-.57-7.43c-1.5-11.35-3.73-14.92-5.28-19.21-4-11-3.43-22.64-.49-28.84a30.41,30.41,0,0,1,6.34-8.43.12.12,0,0,0,0-.17,19.53,19.53,0,0,1-4-15.52,19.1,19.1,0,0,1,5.56-10.2,29.77,29.77,0,0,1,12.79-7,.11.11,0,0,1,.15.09l1.27,4.46a.12.12,0,0,1-.09.15c-11.4,3.28-14.21,9.78-14.88,13.37-.05.32-.1.62-.14.94a.14.14,0,0,0,0,.09c1,1.38,5.49,6.89,11.12,7.14a10.15,10.15,0,0,0,6.18-1.94.13.13,0,0,0,0-.23,13.85,13.85,0,0,1-4.2-2.5,22.13,22.13,0,0,1-4.42-5.27.13.13,0,0,1,0-.17l2-1.12,2-1.13a.13.13,0,0,1,.17.05,16.76,16.76,0,0,0,3.39,4c3.71,3.08,6.5,1.74,7.41,1.3,3.42-1.65,5.19-4,5.39-7.23a11.43,11.43,0,0,0-.73-4.67.14.14,0,0,1,.07-.16l4.23-1.88a.11.11,0,0,1,.16.06,16,16,0,0,1,1.16,6.72c-.17,3.57-1.72,8.46-8.16,11.55a9.8,9.8,0,0,1-1,.44.09.09,0,0,0-.05,0c-4.12,4.69-8.57,7-13.27,7h-.64a16.81,16.81,0,0,1-8.56-3.07.13.13,0,0,0-.18.17,15.69,15.69,0,0,0,4,4.35c5.37,4,12.57,4.23,19.76.62a.12.12,0,0,1,.16.05l2.1,4.13a.13.13,0,0,1-.06.17,27.31,27.31,0,0,1-11.29,3.08.12.12,0,0,0-.07.22l11.6,8.12a.12.12,0,0,1,0,.16l-1.66,3.21c-2.25,3.46-4.39,3.27-7.12,3.27a6.44,6.44,0,0,1-.89-.06l-10.26-1.54,1.49,4.54a16,16,0,0,0,2.39,4.64c2.43,3.19,4.68,3.53,15.19,3.89l8.66.22c8.65.32,14.88,1,19.33,5.23a16.15,16.15,0,0,1,4.06,7.16,27.14,27.14,0,0,1,1,8.5,28.16,28.16,0,0,1-1.86,9.58Z" transform="translate(-168.02 -355.15)"/><polygon class="cls-1" points="439.87 101.42 445.16 106.62 437.09 128.69 433.03 128.69 438.72 108.64 433.52 103.54 433.59 101.05 439.87 101.42"/></svg>